<svg xmlns="http://www.w3.org/2000/svg" viewBox="0 0 1080 273" role="img" aria-labelledby="title">
  <title id="title">Axis Aceleradora</title>
  <g fill="#fff">
    <path d="M918.675 200.635v-25.426l112.305.196c5.73 0 10.09-1.304 13.08-3.912 3.13-2.738 4.69-7.106 4.69-13.104s-1.56-10.301-4.69-12.909c-2.99-2.738-7.35-4.107-13.08-4.107h-69.923c-14.453 0-25.715-3.455-33.788-10.366-7.943-7.041-11.914-17.341-11.914-30.902s3.971-23.795 11.914-30.706c8.073-7.041 19.335-10.561 33.788-10.561h109.763v25.425l-106.442-.195c-5.599 0-9.961 1.304-13.086 3.911-3.125 2.478-4.688 6.52-4.688 12.126 0 5.607 1.563 9.714 4.688 12.322 3.125 2.477 7.487 3.716 13.086 3.716h69.922c14.45 0 25.65 3.586 33.59 10.757 8.07 7.041 12.11 17.537 12.11 31.489 0 13.821-4.04 24.317-12.11 31.489-7.94 7.171-19.14 10.757-33.59 10.757H918.675Z"/>
    <path d="M825.551 199.657V59.816h31.25v139.841h-31.25ZM592.814 199.657l52.343-69.823-52.343-70.018h38.085l41.992 57.305h17.968l41.991-57.305h38.085l-52.342 70.018 52.342 69.823h-38.28l-41.796-57.11h-17.968l-41.796 57.11h-38.281ZM375.801 199.657 438.69 59.816h48.241l62.89 139.841h-33.984l-13.281-29.533h-79.49l-13.281 29.533h-33.984Zm58.592-54.959h56.835L464.08 84.263h-2.539l-27.148 60.435Z"/>
  </g>
  <g fill="#F04801">
    <path d="m.494 61.241 12.207-48.895A16.28 16.28 0 0 1 28.49 0h227.359a16.29 16.29 0 0 1 16.276 16.299v227.677a16.3 16.3 0 0 1-12.328 15.812l-48.827 12.224c-10.273 2.571-20.223-5.209-20.223-15.812V81.493H16.284C5.695 81.493-2.074 71.528.494 61.241Z"/>
    <path d="m7.883 129.917 49.866-38.482c5.31-4.098 13.013-.368 13.104 6.345l.418 30.85.093 33.232c.064 22.459 18.262 40.631 40.69 40.631h32.594l32.112.579c6.658.12 10.362 7.76 6.337 13.073l-38.181 50.406A16.29 16.29 0 0 1 131.949 273H46.3c-24.72 0-44.758-20.067-44.758-44.821v-85.352a16.3 16.3 0 0 1 6.341-12.91Z"/>
  </g>
</svg>
